<svg xmlns="http://www.w3.org/2000/svg" width="69" height="69"><path fill-rule="evenodd" fill="#43a06d" d="M35 1.007c-18.237 0-33 15.036-33 33.521s14.763 33.465 33 33.465c18.228 0 33-14.98 33-33.465C68 16.043 53.228 1.007 35 1.007zm14.8 20.312a3.3 3.3 0 012.322.973l2.973 3.015a3.315 3.315 0 010 4.642L36.72 48.521l-2.973 3.015c-.474.478-1.05.78-1.663.905a3.24 3.24 0 01-2.918-.905l-2.973-3.015c-.158-.162-.297-.301-.408-.482l-9.282-9.347a3.317 3.317 0 010-4.642l2.973-3.015a3.19 3.19 0 014.58 0l7.433 7.537 16.054-16.28c.632-.643 1.43-.973 2.258-.973z"/></svg>